<svg id="visual" viewBox="0 0 1980 1080" width="1980" height="1080" xmlns="http://www.w3.org/2000/svg" xmlns:xlink="http://www.w3.org/1999/xlink" version="1.1"><path d="M1662 1080L1672 1050C1682 1020 1702 960 1715.2 900C1728.3 840 1734.7 780 1741.2 720C1747.7 660 1754.3 600 1751.2 540C1748 480 1735 420 1731.7 360C1728.3 300 1734.7 240 1728 180C1721.3 120 1701.7 60 1691.8 30L1682 0L1980 0L1980 30C1980 60 1980 120 1980 180C1980 240 1980 300 1980 360C1980 420 1980 480 1980 540C1980 600 1980 660 1980 720C1980 780 1980 840 1980 900C1980 960 1980 1020 1980 1050L1980 1080Z" fill="#3a4bc4"></path><path d="M1128 1080L1108.2 1050C1088.3 1020 1048.7 960 1055.2 900C1061.7 840 1114.3 780 1144 720C1173.7 660 1180.3 600 1173.8 540C1167.3 480 1147.7 420 1147.7 360C1147.7 300 1167.3 240 1177.2 180C1187 120 1187 60 1187 30L1187 0L1683 0L1692.8 30C1702.7 60 1722.3 120 1729 180C1735.7 240 1729.3 300 1732.7 360C1736 420 1749 480 1752.2 540C1755.3 600 1748.7 660 1742.2 720C1735.7 780 1729.3 840 1716.2 900C1703 960 1683 1020 1673 1050L1663 1080Z" fill="#beb7ea"></path><path d="M494 1080L503.8 1050C513.7 1020 533.3 960 546.5 900C559.7 840 566.3 780 566.3 720C566.3 660 559.7 600 566.3 540C573 480 593 420 616.2 360C639.3 300 665.7 240 659 180C652.3 120 612.7 60 592.8 30L573 0L1188 0L1188 30C1188 60 1188 120 1178.2 180C1168.3 240 1148.7 300 1148.7 360C1148.7 420 1168.3 480 1174.8 540C1181.3 600 1174.7 660 1145 720C1115.3 780 1062.7 840 1056.2 900C1049.7 960 1089.3 1020 1109.2 1050L1129 1080Z" fill="#ffffff"></path><path d="M296 1080L292.7 1050C289.3 1020 282.7 960 295.8 900C309 840 342 780 348.7 720C355.3 660 335.7 600 339 540C342.3 480 368.7 420 385.2 360C401.7 300 408.3 240 391.8 180C375.3 120 335.7 60 315.8 30L296 0L574 0L593.8 30C613.7 60 653.3 120 660 180C666.7 240 640.3 300 617.2 360C594 420 574 480 567.3 540C560.7 600 567.3 660 567.3 720C567.3 780 560.7 840 547.5 900C534.3 960 514.7 1020 504.8 1050L495 1080Z" fill="#beb7ea"></path><path d="M0 1080L0 1050C0 1020 0 960 0 900C0 840 0 780 0 720C0 660 0 600 0 540C0 480 0 420 0 360C0 300 0 240 0 180C0 120 0 60 0 30L0 0L297 0L316.8 30C336.7 60 376.3 120 392.8 180C409.3 240 402.7 300 386.2 360C369.7 420 343.3 480 340 540C336.7 600 356.3 660 349.7 720C343 780 310 840 296.8 900C283.7 960 290.3 1020 293.7 1050L297 1080Z" fill="#3a4bc4"></path></svg>