<svg id="visual" viewBox="0 0 1980 1080" width="1980" height="1080" xmlns="http://www.w3.org/2000/svg" xmlns:xlink="http://www.w3.org/1999/xlink" version="1.1"><path d="M1761 1080L1764.3 1054.3C1767.7 1028.7 1774.3 977.3 1754.5 925.8C1734.7 874.3 1688.3 822.7 1658.7 771.2C1629 719.7 1616 668.3 1612.8 617C1609.7 565.7 1616.3 514.3 1609.7 463C1603 411.7 1583 360.3 1592.8 308.8C1602.7 257.3 1642.3 205.7 1668.8 154.2C1695.3 102.7 1708.7 51.3 1715.3 25.7L1722 0L1980 0L1980 25.7C1980 51.3 1980 102.7 1980 154.2C1980 205.7 1980 257.3 1980 308.8C1980 360.3 1980 411.7 1980 463C1980 514.3 1980 565.7 1980 617C1980 668.3 1980 719.7 1980 771.2C1980 822.7 1980 874.3 1980 925.8C1980 977.3 1980 1028.7 1980 1054.3L1980 1080Z" fill="#0066ff"></path><path d="M1207 1080L1210.3 1054.3C1213.7 1028.7 1220.3 977.3 1210.3 925.8C1200.3 874.3 1173.7 822.7 1163.7 771.2C1153.7 719.7 1160.3 668.3 1170.3 617C1180.3 565.7 1193.7 514.3 1167.3 463C1141 411.7 1075 360.3 1032 308.8C989 257.3 969 205.7 1002 154.2C1035 102.7 1121 51.3 1164 25.7L1207 0L1723 0L1716.3 25.7C1709.7 51.3 1696.3 102.7 1669.8 154.2C1643.3 205.7 1603.7 257.3 1593.8 308.8C1584 360.3 1604 411.7 1610.7 463C1617.3 514.3 1610.7 565.7 1613.8 617C1617 668.3 1630 719.7 1659.7 771.2C1689.3 822.7 1735.7 874.3 1755.5 925.8C1775.3 977.3 1768.7 1028.7 1765.3 1054.3L1762 1080Z" fill="#c2c2ff"></path><path d="M613 1080L622.8 1054.3C632.7 1028.7 652.3 977.3 619.3 925.8C586.3 874.3 500.7 822.7 480.8 771.2C461 719.7 507 668.3 536.7 617C566.3 565.7 579.7 514.3 576.5 463C573.3 411.7 553.7 360.3 524 308.8C494.3 257.3 454.7 205.7 444.7 154.2C434.7 102.7 454.3 51.3 464.2 25.7L474 0L1208 0L1165 25.7C1122 51.3 1036 102.7 1003 154.2C970 205.7 990 257.3 1033 308.8C1076 360.3 1142 411.7 1168.3 463C1194.7 514.3 1181.3 565.7 1171.3 617C1161.3 668.3 1154.7 719.7 1164.7 771.2C1174.7 822.7 1201.3 874.3 1211.3 925.8C1221.3 977.3 1214.7 1028.7 1211.3 1054.3L1208 1080Z" fill="#ffffff"></path><path d="M296 1080L305.8 1054.3C315.7 1028.7 335.3 977.3 322.2 925.8C309 874.3 263 822.7 246.5 771.2C230 719.7 243 668.3 256.2 617C269.3 565.7 282.7 514.3 302.5 463C322.3 411.7 348.7 360.3 335.5 308.8C322.3 257.3 269.7 205.7 249.8 154.2C230 102.7 243 51.3 249.5 25.7L256 0L475 0L465.2 25.7C455.3 51.3 435.7 102.7 445.7 154.2C455.7 205.7 495.3 257.3 525 308.8C554.7 360.3 574.3 411.7 577.5 463C580.7 514.3 567.3 565.7 537.7 617C508 668.3 462 719.7 481.8 771.2C501.7 822.7 587.3 874.3 620.3 925.8C653.3 977.3 633.7 1028.7 623.8 1054.3L614 1080Z" fill="#c2c2ff"></path><path d="M0 1080L0 1054.3C0 1028.7 0 977.3 0 925.8C0 874.3 0 822.7 0 771.2C0 719.7 0 668.3 0 617C0 565.7 0 514.3 0 463C0 411.7 0 360.3 0 308.8C0 257.3 0 205.7 0 154.2C0 102.7 0 51.3 0 25.7L0 0L257 0L250.5 25.7C244 51.3 231 102.7 250.8 154.2C270.7 205.7 323.3 257.3 336.5 308.8C349.7 360.3 323.3 411.7 303.5 463C283.7 514.3 270.3 565.7 257.2 617C244 668.3 231 719.7 247.5 771.2C264 822.7 310 874.3 323.2 925.8C336.3 977.3 316.7 1028.7 306.8 1054.3L297 1080Z" fill="#0066ff"></path></svg>